<?xml version="1.0" standalone="no"?>
<!DOCTYPE svg PUBLIC "-//W3C//DTD SVG 20010904//EN"
 "http://www.w3.org/TR/2001/REC-SVG-20010904/DTD/svg10.dtd">
<svg version="1.0" xmlns="http://www.w3.org/2000/svg"
 width="270.000000pt" height="112.000000pt" viewBox="0 0 270.000000 112.000000"
 preserveAspectRatio="xMidYMid meet">

<g transform="translate(0.000000,112.000000) scale(0.100000,-0.100000)"
fill="#000000" stroke="none">
<path d="M370 689 c-129 -166 -239 -308 -243 -316 -7 -12 4 -14 71 -12 l79 2
198 258 199 259 63 0 63 0 0 55 0 55 -98 0 -98 0 -234 -301z"/>
<path d="M678 758 l-3 -83 -57 -3 c-55 -3 -57 -4 -97 -56 -23 -29 -41 -56 -41
-59 0 -4 45 -7 100 -7 l100 0 0 -95 0 -96 58 3 57 3 3 238 2 237 -59 0 -60 0
-3 -82z"/>
<path d="M2032 308 c6 -18 28 -21 28 -4 0 9 -7 16 -16 16 -9 0 -14 -5 -12 -12z"/>
<path d="M2230 304 c0 -17 22 -14 28 4 2 7 -3 12 -12 12 -9 0 -16 -7 -16 -16z"/>
<path d="M1680 290 c0 -5 9 -10 20 -10 18 0 20 -7 20 -60 0 -47 3 -60 15 -60
12 0 15 13 15 60 0 57 1 60 25 60 14 0 25 5 25 10 0 6 -27 10 -60 10 -33 0
-60 -4 -60 -10z"/>
<path d="M1810 214 c0 -41 4 -54 15 -54 11 0 15 12 15 45 0 41 2 45 25 45 14
0 25 4 25 9 0 6 -18 9 -40 9 l-40 0 0 -54z"/>
<path d="M1911 257 c-6 -8 -8 -17 -4 -20 11 -12 23 -8 23 8 0 8 7 15 15 15 26
0 16 -29 -16 -45 -46 -24 -35 -49 24 -53 l47 -3 0 43 c0 24 -5 49 -12 56 -16
16 -63 15 -77 -1z m49 -61 c0 -8 -4 -17 -9 -21 -12 -7 -24 12 -16 25 9 15 25
12 25 -4z"/>
<path d="M2037 263 c-4 -3 -7 -28 -7 -55 0 -36 4 -48 15 -48 12 0 15 13 15 55
0 51 -7 65 -23 48z"/>
<path d="M2100 266 c-1 0 -2 -25 -4 -53 -3 -46 -1 -53 15 -53 16 0 19 8 19 46
0 38 3 45 18 42 13 -3 17 -13 17 -46 -1 -34 3 -42 17 -42 14 0 18 8 18 36 0
56 -14 73 -60 72 -22 0 -40 -1 -40 -2z"/>
<path d="M2237 263 c-4 -3 -7 -28 -7 -55 0 -36 4 -48 15 -48 12 0 15 13 15 55
0 51 -7 65 -23 48z"/>
<path d="M2290 214 c0 -40 4 -54 14 -54 10 0 16 14 18 42 2 31 8 44 21 46 14
3 17 -4 17 -42 0 -35 4 -46 16 -46 12 0 14 10 12 53 l-3 52 -47 1 -48 2 0 -54z"/>
<path d="M2431 257 c-16 -16 -14 -72 4 -87 8 -7 24 -10 36 -7 15 4 19 1 17
-11 -3 -13 -12 -16 -38 -14 -33 2 -34 2 -16 -13 23 -18 40 -19 67 -5 16 9 19
22 19 78 l0 68 -39 1 c-21 1 -43 -3 -50 -10z m63 -30 c8 -12 7 -21 -6 -33 -20
-20 -38 -11 -38 20 0 39 23 46 44 13z"/>
<path d="M2570 170 c0 -5 7 -10 15 -10 8 0 15 5 15 10 0 6 -7 10 -15 10 -8 0
-15 -4 -15 -10z"/>
</g>
</svg>
